<svg width="26" height="14" viewBox="0 0 26 14" fill="none" xmlns="http://www.w3.org/2000/svg">
<path fill-rule="evenodd" clip-rule="evenodd" d="M12.3362 13.7246C12.4233 13.8119 12.5267 13.8811 12.6406 13.9284C12.7545 13.9757 12.8766 14 12.9999 14C13.1232 14 13.2453 13.9757 13.3592 13.9284C13.4731 13.8811 13.5766 13.8119 13.6637 13.7246L24.9137 2.47457C25.0897 2.29854 25.1886 2.05978 25.1886 1.81082C25.1886 1.56187 25.0897 1.32311 24.9137 1.14707C24.7376 0.971037 24.4989 0.872141 24.2499 0.872141C24.001 0.872141 23.7622 0.971037 23.5862 1.14707L12.9999 11.7352L2.41368 1.14707C2.23765 0.971037 1.99889 0.872141 1.74993 0.872141C1.50098 0.872141 1.26222 0.971037 1.08618 1.14707C0.910146 1.32311 0.811249 1.56187 0.811249 1.81082C0.811249 2.05978 0.910146 2.29854 1.08618 2.47457L12.3362 13.7246V13.7246Z" fill="black"/>
</svg>
